{"title":"Prince Royce ft. Jennifer Lopez+Pitbull - Back It Up (2015.Latin","uid":12113917,"size":123309334,"categoryP":"video","categoryS":"music_videos","magnet":"?xt=urn:btih:a3e4c885e8829f6013cd563198831bab0815a4b3&amp;dn=Prince+Royce+ft.+Jennifer+Lopez%2BPitbull+-+Back+It+Up+%282015.Latin&amp;tr=udp%3A%2F%2Ftracker.openbittorrent.com%3A80&amp;tr=udp%3A%2F%2Fopen.demonii.com%3A1337&amp;tr=udp%3A%2F%2Ftracker.coppersurfer.tk%3A6969&amp;tr=udp%3A%2F%2Fexodus.desync.com%3A6969","seeders":0,"leechers":1,"uploader":"MeRaDil","files":1,"time":1436641242,"description":"PRINCE ROYCE ft.JENNIFER LOPEZ &amp; PITBULL - BACK IT UP\n\n\nMPEG4 MusicVid\n &lt;a href=&quot;\nhttp://gifyu.com/images/BackItUp.png&quot; rel=&quot;nofollow&quot; target=&quot;_NEW&quot;&gt;\nhttp://gifyu.com/images/BackItUp.png&lt;/a&gt;\n &lt;a href=&quot;\nhttp://gifyu.com/images/PrinceRoyce-1.png&quot; rel=&quot;nofollow&quot; target=&quot;_NEW&quot;&gt;\nhttp://gifyu.com/images/PrinceRoyce-1.png&lt;/a&gt;\n\nGeneral\nPrince Royce ft. Jennifer Lopez+Pitbull - Back It Up\nFormat                                   : MPEG-4\nFormat profile                           : Base Media\nCodec ID                                 : isom\nFile size                                : 118 MiB\nDuration                                 : 3mn 47s\nOverall bit rate                         : 4 340 Kbps\nMusicVid name                            : Back It Up\nPerformer                                : Prince Royce ft. Jennifer Lopez &amp; Pitbull\nGenre                                    : Latin\nContentType                              : Music Video\nRecorded date                            : 2015\nCopyright                                : Prince Royce\nCover                                    : Yes\nRating                                   : ***\nMake                                     : MeRaDil\nArtist url                               : http://www.princeroyce.com\nRelease                                  : USA . june 9 . 2015\nPart_ID                                  : Back It Up\n\nVideo\nID                                       : 1\nFormat                                   : AVC\nFormat/Info                              : Advanced Video Codec\nFormat profile                           : &lt;a class=&quot;__cf_email__&quot; href=&quot;/cdn-cgi/l/email-protection&quot; data-cfemail=&quot;571f3e303f171b637967&quot;&gt;[email&amp;#160;protected]&lt;/a&gt;&lt;script data-cfhash='f9e31' type=&quot;text/javascript&quot;&gt;\n/* &lt;![CDATA[ */!function(){try{var t=&quot;currentScript&quot;in document?document.currentScript:function(){for(var t=document.getElementsByTagName(&quot;script&quot;),e=t.length;e--;)if(t[e].getAttribute(&quot;data-cfhash&quot;))return t[e]}();if(t&amp;&amp;t.previousSibling){var e,r,n,i,c=t.previousSibling,a=c.getAttribute(&quot;data-cfemail&quot;);if(a){for(e=&quot;&quot;,r=parseInt(a.substr(0,2),16),n=2;a.length-n;n+=2)i=parseInt(a.substr(n,2),16)^r,e+=String.fromCharCode(i);e=document.createTextNode(e),c.parentNode.replaceChild(e,c)}t.parentNode.removeChild(t);}}catch(u){}}()/* ]]&gt; */&lt;/script&gt;\nFormat settings, CABAC                   : Yes\nFormat settings, ReFrames                : 2 frames\nCodec ID                                 : avc1\nCodec ID/Info                            : Advanced Video Coding\nDuration                                 : 3mn 47s\nBit rate                                 : 4 076 Kbps\nWidth                                    : 1 920 pixels\nHeight                                   : 1 080 pixels\nDisplay aspect ratio                     : 16:9\nFrame rate mode                          : Variable\nFrame rate                               : 23.976 fps\nMinimum frame rate                       : 23.974 fps\nMaximum frame rate                       : 23.981 fps\nColor space                              : YUV\nChroma subsampling                       : 4:2:0\nBit depth                                : 8 bits\nScan type                                : Progressive\nBits/(Pixel*Frame)                       : 0.082\nStream size                              : 110 MiB (94%)\n\nAudio\nID                                       : 2\nFormat                                   : AAC\nFormat/Info                              : Advanced Audio Codec\nFormat profile                           : LC\nCodec ID                                 : 40\nDuration                                 : 3mn 47s\nBit rate mode                            : Constant\nBit rate                                 : 256 Kbps\nChannel(s)                               : 2 channels\nChannel positions                        : Front: L R\nSampling rate                            : 44.1 KHz\nCompression mode                         : Lossy\nStream size                              : 6.94 MiB (6%)\n\nPrince Royce * Jennifer Lopez * Pibull * Latin * Promo\n &lt;a href=&quot;\nhttps://thepiratebay.se/user/MeRaDil&quot; rel=&quot;nofollow&quot; target=&quot;_NEW&quot;&gt;\nhttps://thepiratebay.se/user/MeRaDil&lt;/a&gt;","torrent":{"xt":"urn:btih:a3e4c885e8829f6013cd563198831bab0815a4b3","amp;dn":"Prince+Royce+ft.+Jennifer+Lopez%2BPitbull+-+Back+It+Up+%282015.Latin","amp;tr":["udp%3A%2F%2Ftracker.openbittorrent.com%3A80","udp%3A%2F%2Fopen.demonii.com%3A1337","udp%3A%2F%2Ftracker.coppersurfer.tk%3A6969","udp%3A%2F%2Fexodus.desync.com%3A6969"],"infoHash":"a3e4c885e8829f6013cd563198831bab0815a4b3","infoHashBuffer":{"type":"Buffer","data":[163,228,200,133,232,130,159,96,19,205,86,49,152,131,27,171,8,21,164,179]},"announce":[],"urlList":[]}}